<svg xmlns="http://www.w3.org/2000/svg" width="16" height="16" viewBox="0 0 512 512">
	<defs>
		<style>
			.cls-1 {
			fill: #838383;
			fill-rule: evenodd;
			}
		</style>
	</defs>
	<path id="Forma_1" data-name="Forma 1" class="cls-1" d="M467,60H452V45a45,45,0,0,0-90,0V60H302V45a45,45,0,0,0-90,0V60H150V45a45,45,0,0,0-90,0V60H45A45.051,45.051,0,0,0,0,105V467a45.051,45.051,0,0,0,45,45H467a45.051,45.051,0,0,0,45-45V105A45.051,45.051,0,0,0,467,60ZM392,45a15,15,0,0,1,30,0v60a15,15,0,0,1-30,0V45ZM242,45a15,15,0,0,1,30,0v60a15,15,0,0,1-30,0V45ZM90,45a15,15,0,0,1,30,0v60a15,15,0,0,1-30,0V45ZM482,467a15.017,15.017,0,0,1-15,15H45a15.017,15.017,0,0,1-15-15V212H482V467Zm0-285H30V105A15.017,15.017,0,0,1,45,90H60v15a45,45,0,0,0,90,0V90h62v15a45,45,0,0,0,90,0V90h60v15a45,45,0,0,0,90,0V90h15a15.017,15.017,0,0,1,15,15v77Zm-45,60H75a15,15,0,0,0-15,15V437a15,15,0,0,0,15,15H437a15,15,0,0,0,15-15V257A15,15,0,0,0,437,242ZM150,422H90V362h60v60Zm0-90H90V272h60v60Zm92,90H180V362h62v60Zm0-90H180V272h62v60Zm90,90H272V362h60v60Zm0-90H272V272h60v60Zm90,90H362V362h60v60Zm0-90H362V272h60v60Z"/>
</svg>
