<svg xmlns="http://www.w3.org/2000/svg" width="52" height="52" viewBox="0 0 52 52"><g><g><path fill="#838383" d="M51.6 10.9v36.2c0 2.481-2.019 4.5-4.5 4.5H4.9a4.505 4.505 0 0 1-4.5-4.5V10.9c0-2.481 2.019-4.5 4.5-4.5h1.5V4.9C6.4 2.419 8.419.4 10.9.4s4.5 2.019 4.5 4.5v1.5h6.2V4.9c0-2.481 2.019-4.5 4.5-4.5s4.5 2.019 4.5 4.5v1.5h6V4.9c0-2.481 2.019-4.5 4.5-4.5s4.5 2.019 4.5 4.5v1.5h1.5c2.481 0 4.5 2.019 4.5 4.5zm-12 0c0 .827.673 1.5 1.5 1.5s1.5-.673 1.5-1.5v-6c0-.827-.673-1.5-1.5-1.5s-1.5.673-1.5 1.5zm-15 0c0 .827.673 1.5 1.5 1.5s1.5-.673 1.5-1.5v-6c0-.827-.673-1.5-1.5-1.5s-1.5.673-1.5 1.5zm-15.2 0c0 .827.673 1.5 1.5 1.5s1.5-.673 1.5-1.5v-6c0-.827-.673-1.5-1.5-1.5s-1.5.673-1.5 1.5zm39.2 10.7H3.4v25.5c0 .827.673 1.5 1.5 1.5h42.2c.827 0 1.5-.673 1.5-1.5zm0-10.7c0-.827-.673-1.5-1.5-1.5h-1.5v1.5c0 2.481-2.019 4.5-4.5 4.5a4.505 4.505 0 0 1-4.5-4.5V9.4h-6v1.5c0 2.481-2.019 4.5-4.5 4.5a4.505 4.505 0 0 1-4.5-4.5V9.4h-6.2v1.5c0 2.481-2.019 4.5-4.5 4.5a4.505 4.505 0 0 1-4.5-4.5V9.4H4.9c-.827 0-1.5.673-1.5 1.5v7.7h45.2zm-3 15.2v18a1.5 1.5 0 0 1-1.5 1.5H7.9a1.5 1.5 0 0 1-1.5-1.5v-18a1.5 1.5 0 0 1 1.5-1.5h36.2a1.5 1.5 0 0 1 1.5 1.5zM15.4 36.6h-6v6h6zm0-9h-6v6h6zm9.2 9h-6.2v6h6.2zm0-9h-6.2v6h6.2zm9 9h-6v6h6zm0-9h-6v6h6zm9 9h-6v6h6zm0-9h-6v6h6z"/></g></g></svg>