<svg xmlns="http://www.w3.org/2000/svg" width="15" height="10" viewBox="0 0 40 27"><g><g><path fill="#c22812" d="M29.932 26.99a4.914 4.914 0 0 1-4.739-3.638h-7.28a4.914 4.914 0 0 1-4.739 3.638 4.914 4.914 0 0 1-4.739-3.638h-3.19a1.226 1.226 0 0 1 0-2.453h3.169a4.914 4.914 0 0 1 4.76-3.72 4.914 4.914 0 0 1 4.76 3.72h7.238a4.914 4.914 0 0 1 4.76-3.72 4.914 4.914 0 0 1 4.76 3.72h2.311v-6.325l-1.785-2.3H25.68a1.226 1.226 0 0 1-1.226-1.227V2.463H5.245a1.226 1.226 0 0 1 0-2.453H25.68c.678 0 1.227.549 1.227 1.226v1.227h5.232c.463 0 .887.26 1.095.675l3.679 7.317-.002.001 2.286 2.946c.167.215.258.48.258.752v7.971c0 .677-.549 1.226-1.226 1.226H34.67a4.913 4.913 0 0 1-4.739 3.639zm2.453-4.906c0-1.352-1.1-2.452-2.453-2.452a2.455 2.455 0 0 0-2.452 2.452c0 1.353 1.1 2.453 2.452 2.453 1.353 0 2.453-1.1 2.453-2.453zm-16.759 0c0-1.352-1.1-2.452-2.452-2.452a2.455 2.455 0 0 0-2.452 2.452c0 1.353 1.1 2.453 2.452 2.453 1.352 0 2.452-1.1 2.452-2.453zM31.383 4.915h-4.475v4.906h6.941zM10.64 15.912c0 .677-.55 1.226-1.226 1.226H3.773a1.226 1.226 0 1 1 0-2.453h5.64c.678 0 1.227.55 1.227 1.227zm2.82-4.824c0 .677-.549 1.226-1.226 1.226H1.77a1.226 1.226 0 0 1 0-2.452h10.464c.677 0 1.226.549 1.226 1.226zm2.003-4.824c0 .678-.549 1.227-1.226 1.227H3.773a1.226 1.226 0 1 1 0-2.453h10.464c.677 0 1.226.549 1.226 1.226z"/></g></g></svg>