<svg xmlns="http://www.w3.org/2000/svg" width="40" height="42" viewBox="0 0 122 122">
	<defs>
		<style>
			.cls-1 {
			fill: #c22812;
			fill-rule: evenodd;
			}
		</style>
	</defs>
	<path id="Forma_1" data-name="Forma 1" class="cls-1" d="M90.838,36.3a30.075,30.075,0,0,0-8.744,1.284V9.278H58.184l1.778-8.744H22.913l1.68,8.744H0.534V121.466H82.094V96.272a30.069,30.069,0,0,0,8.744,1.284A30.628,30.628,0,1,0,90.838,36.3ZM53.788,5.672l-2.569,12.35H31.656L29.335,5.672H53.788ZM76.981,116.328H5.672V14.44H25.6l1.68,8.744H55.319L57.1,14.44H76.932V39.659A30.985,30.985,0,0,0,62.186,56.134H12.637v5.113H60.753a30.076,30.076,0,0,0,.988,15.166h-49.1V81.55H64.013a30.809,30.809,0,0,0,12.967,12.6v22.181ZM90.838,92.122A25.466,25.466,0,1,1,116.3,66.656,25.526,25.526,0,0,1,90.838,92.122Zm-78.2-56.069H70.262v5.138H12.637V36.053Zm0,60.466H70.262v5.138H12.637V96.519Zm91.217-39.125-3.63-3.656-9.288,9.287-9.287-9.287-3.631,3.656,9.287,9.262-9.46,9.46,3.631,3.656,9.46-9.46,9.46,9.46,3.631-3.656-9.46-9.46Z"/>
</svg>
