<svg xmlns="http://www.w3.org/2000/svg" width="65" height="45" viewBox="0 0 65 45">
  <defs>
    <style>
      .cls-1 {
        fill: #bcbdbd;
      }

      .cls-1, .cls-2 {
        fill-rule: evenodd;
      }

      .cls-2 {
        fill: none;
        stroke: #bcbdbd;
        stroke-width: 5px;
      }
    </style>
  </defs>
  <path id="Forma_1" data-name="Forma 1" class="cls-1" d="M63,20.63a47.306,47.306,0,0,0-8.435-7.907C47.552,7.538,39.922,4.8,32.5,4.8S17.448,7.538,10.436,12.723A47.319,47.319,0,0,0,2,20.63L0.915,22.011,2,23.392A47.332,47.332,0,0,0,10.436,31.3c7.012,5.185,14.642,7.926,22.064,7.926S47.552,36.484,54.564,31.3A47.312,47.312,0,0,0,63,23.392l1.085-1.381ZM32.5,34.07A12.073,12.073,0,0,1,20.9,18.993l-2.735-.463a14.9,14.9,0,0,0,4.32,14.364,38.754,38.754,0,0,1-9.326-5.11A46.6,46.6,0,0,1,6.68,22.011a46.585,46.585,0,0,1,6.477-5.773,38.759,38.759,0,0,1,9.326-5.109l1.835,2.082A11.894,11.894,0,0,1,32.5,9.952,12.059,12.059,0,0,1,32.5,34.07Zm19.343-6.286a38.76,38.76,0,0,1-9.326,5.11,14.884,14.884,0,0,0,0-21.765,38.764,38.764,0,0,1,9.326,5.11,46.582,46.582,0,0,1,6.476,5.773A46.584,46.584,0,0,1,51.843,27.784ZM24.875,19.666A7.966,7.966,0,1,0,32.5,13.988a7.916,7.916,0,0,0-5.522,2.24l3.932,4.461Z"/>
  <path class="cls-2" d="M54.621-.013l0.683,0.7L10.379,45.014l-0.683-.7Z"/>
</svg>
