<svg xmlns="http://www.w3.org/2000/svg" width="51" height="38" viewBox="0 0 160 102">
	<defs>
		<style>
			.cls-1 {
			fill: #c22812;
			fill-rule: evenodd;
			}
		</style>
	</defs>
	<path class="cls-1" d="M148.795,43.3L144.652,26.72a2.506,2.506,0,0,0,1.982-2.45V21.6a10.535,10.535,0,0,0-10.521-10.525H117.242V5.557A5.184,5.184,0,0,0,112.065.378H15.87a5.184,5.184,0,0,0-5.177,5.179V51a2.505,2.505,0,1,0,5.01,0V5.557a0.167,0.167,0,0,1,.167-0.167h96.194a0.166,0.166,0,0,1,.167.167V51a2.506,2.506,0,1,0,5.011,0V48.16h29.564a8.2,8.2,0,0,1,7.785,5.68H146.8a2.506,2.506,0,0,0-2.5,2.506v5.346a7.859,7.859,0,0,0,7.849,7.852h2.839V80.572h-6.55a15.859,15.859,0,0,0-29.987,0h-1.206V61.693a2.505,2.505,0,1,0-5.01,0V80.571H60.257a15.858,15.858,0,0,0-29.987,0H15.87A0.167,0.167,0,0,1,15.7,80.4V74.891H26.559a2.506,2.506,0,0,0,0-5.012H2.51a2.506,2.506,0,0,0,0,5.012h8.183V80.4a5.184,5.184,0,0,0,5.177,5.179H29.4c0,0.056,0,.111,0,0.167a15.865,15.865,0,1,0,31.73,0c0-.056,0-0.111,0-0.167H117.58c0,0.056,0,.111,0,0.167a15.866,15.866,0,1,0,31.731,0c0-.056,0-0.111-0.005-0.167h8.188A2.506,2.506,0,0,0,160,83.077V56.346A13.218,13.218,0,0,0,148.795,43.3ZM117.242,16.083h18.871a5.518,5.518,0,0,1,5.511,5.513v0.167H117.242v-5.68Zm0,27.065V26.775H139.5l4.092,16.373H117.242ZM45.263,96.61a10.86,10.86,0,1,1,10.855-10.86A10.87,10.87,0,0,1,45.263,96.61Zm88.178,0A10.86,10.86,0,1,1,144.3,85.751,10.87,10.87,0,0,1,133.441,96.61Zm21.544-32.077h-2.839a2.843,2.843,0,0,1-2.84-2.84v-2.84h5.679v5.68h0ZM45.263,80.572a5.179,5.179,0,1,0,5.177,5.179A5.184,5.184,0,0,0,45.263,80.572Zm88.178,0a5.179,5.179,0,1,0,5.177,5.179A5.184,5.184,0,0,0,133.441,80.572ZM104.048,69.879H66.64a2.506,2.506,0,0,0,0,5.012h37.409A2.506,2.506,0,0,0,104.048,69.879ZM39.919,59.187H7.854a2.506,2.506,0,0,0,0,5.012H39.919A2.506,2.506,0,0,0,39.919,59.187Zm47.2-34.017a2.5,2.5,0,0,0-3.543,0L61.3,47.456,49.707,35.863a2.505,2.505,0,1,0-3.543,3.544l13.36,13.366a2.5,2.5,0,0,0,3.542,0L87.115,28.714A2.507,2.507,0,0,0,87.116,25.17Z"/>
</svg>
