<svg xmlns="http://www.w3.org/2000/svg" width="67" height="37" viewBox="0 0 67 37">
  <defs>
    <style>
      .cls-1 {
        fill: #bcbdbd;
        fill-rule: evenodd;
      }
    </style>
  </defs>
  <path id="Forma_1" data-name="Forma 1" class="cls-1" d="M64.938,17.088a48.581,48.581,0,0,0-8.7-8.083C49.015,3.705,41.151.9,33.5,0.9s-15.515,2.8-22.743,8.1a48.592,48.592,0,0,0-8.7,8.083L0.943,18.5l1.118,1.412a48.6,48.6,0,0,0,8.7,8.083c7.228,5.3,15.092,8.1,22.743,8.1s15.515-2.8,22.743-8.1a48.586,48.586,0,0,0,8.7-8.083L66.056,18.5ZM33.5,30.827A12.33,12.33,0,0,1,21.541,15.415l-2.82-.474a15.141,15.141,0,0,0,4.453,14.683A40.054,40.054,0,0,1,13.561,24.4a47.906,47.906,0,0,1-6.676-5.9,47.882,47.882,0,0,1,6.676-5.9,40.052,40.052,0,0,1,9.613-5.223L25.066,9.5A12.335,12.335,0,1,1,33.5,30.827ZM53.438,24.4a40.058,40.058,0,0,1-9.613,5.223,15.129,15.129,0,0,0,0-22.249A40.052,40.052,0,0,1,53.438,12.6a47.879,47.879,0,0,1,6.676,5.9A47.886,47.886,0,0,1,53.438,24.4Zm-27.8-8.3a8.226,8.226,0,1,0,2.167-3.515l4.053,4.56Z"/>
</svg>
