 <svg xmlns="http://www.w3.org/2000/svg"  width="20" height="20" viewBox="0 0 365 358" fill="#c22812">
 	<defs>
 		<style>
 			.cls-1 {
 			fill-rule: evenodd;
 			}
 		</style>
 	</defs>
 	<path id="Forma_1" data-name="Forma 1" class="cls-1" d="M361.286,152.213L191.241,3.136a12.5,12.5,0,0,0-16.483,0L4.713,152.213A12.506,12.506,0,0,0,21.2,171.024l13.166-11.543V345.493A12.5,12.5,0,0,0,46.866,358H319.133a12.5,12.5,0,0,0,12.5-12.506V159.482L344.8,171.025A12.506,12.506,0,0,0,361.286,152.213ZM154.127,332.986V229.961h57.745V332.987H154.127Zm152.5-195.33v195.33H236.879V217.454a12.5,12.5,0,0,0-12.5-12.506H141.625a12.5,12.5,0,0,0-12.5,12.506V332.987H59.37V137.656c0-.032,0-0.062,0-0.093L183,29.171,306.636,137.562C306.636,137.594,306.631,137.624,306.631,137.656ZM154.993,117.222a12.5,12.5,0,0,0,12.5,12.507H198.5a12.507,12.507,0,0,0,0-25.013H167.5A12.5,12.5,0,0,0,154.993,117.222Z"/>
 </svg>
