<svg xmlns="http://www.w3.org/2000/svg" width="22" height="16" viewBox="0 0 22 16"><g><g><path fill="#fff" d="M16.973 11.507v.853a.426.426 0 1 1-.853 0v-.853a.426.426 0 1 1 .853 0zm-2.56 0v.853a.426.426 0 1 1-.853 0v-.853a.426.426 0 1 1 .853 0zm-4.266 0v.853a.426.426 0 1 1-.854 0v-.853a.426.426 0 1 1 .854 0zm-1.707 0v.853a.426.426 0 1 1-.853 0v-.853a.426.426 0 1 1 .853 0zm-1.707 0v.853a.426.426 0 1 1-.853 0v-.853a.426.426 0 1 1 .853 0zM21.24 1.693v1.28a.426.426 0 1 1-.853 0v-1.28a.854.854 0 0 0-.854-.853h-1.28a.426.426 0 1 1 0-.853h1.28c.941 0 1.707.765 1.707 1.706zM.76 2.973v-1.28c0-.941.766-1.706 1.707-1.706h1.28a.426.426 0 1 1 0 .853h-1.28a.854.854 0 0 0-.854.853v1.28a.426.426 0 1 1-.853 0zm20.48 9.387v1.28c0 .941-.766 1.707-1.707 1.707h-1.28a.426.426 0 1 1 0-.854h1.28c.471 0 .854-.383.854-.853v-1.28a.426.426 0 1 1 .853 0zM4.173 14.92c0 .236-.19.427-.426.427h-1.28c-.941 0-1.707-.766-1.707-1.707v-1.28a.426.426 0 1 1 .853 0v1.28c0 .47.383.853.854.853h1.28c.235 0 .426.191.426.427zM21.24 7.24c0 .236-.19.427-.427.427H18.68v4.693a.426.426 0 1 1-.853 0V7.667h-.854V9.8a.426.426 0 1 1-.853 0V7.667h-1.707V9.8a.426.426 0 1 1-.853 0V7.667h-.853v4.693a.426.426 0 1 1-.854 0V7.667h-1.706V9.8a.426.426 0 1 1-.854 0V7.667H8.44V9.8a.426.426 0 1 1-.853 0V7.667h-.854V9.8a.426.426 0 1 1-.853 0V7.667H4.173v4.693a.426.426 0 1 1-.853 0V7.667H1.187a.426.426 0 1 1 0-.854h19.626c.236 0 .427.191.427.427zM4.173 2.973v2.56a.426.426 0 1 1-.853 0v-2.56a.426.426 0 1 1 .853 0zm1.707 2.56v-2.56a.426.426 0 1 1 .853 0v2.56a.426.426 0 1 1-.853 0zm1.707 0v-2.56a.426.426 0 1 1 .853 0v2.56a.426.426 0 1 1-.853 0zm1.706 0v-2.56a.426.426 0 1 1 .854 0v2.56a.426.426 0 1 1-.854 0zm2.56 0v-2.56a.426.426 0 1 1 .854 0v2.56a.426.426 0 1 1-.854 0zm1.707 0v-2.56a.426.426 0 1 1 .853 0v2.56a.426.426 0 1 1-.853 0zm2.56 0v-2.56a.426.426 0 1 1 .853 0v2.56a.426.426 0 1 1-.853 0zm1.707 0v-2.56a.426.426 0 1 1 .853 0v2.56a.426.426 0 1 1-.853 0z"/></g></g></svg>