<svg xmlns="http://www.w3.org/2000/svg" width="50" height="50" viewBox="0 0 50 50"><g><g><path fill="#838383" d="M48.952 48.728a1.42 1.42 0 0 1-1.024.43c-.367 0-.744-.15-1.024-.43L35.092 36.914a20.638 20.638 0 0 1-13.59 5.088C10.08 42.002.78 32.7.78 21.275.779 9.849 10.069.547 21.503.547c11.423 0 20.724 9.292 20.724 20.728 0 5.195-1.919 9.948-5.087 13.591L48.952 46.68c.56.56.56 1.487 0 2.048zm-27.46-9.626c9.829 0 17.814-8.008 17.814-17.827 0-9.82-7.985-17.817-17.814-17.817-9.818 0-17.814 7.987-17.814 17.817s7.996 17.827 17.814 17.827z"/></g></g></svg>