
<!-- Generator: Adobe Illustrator 24.0.2, SVG Export Plug-In . SVG Version: 6.00 Build 0)  -->
<svg version="1.1" id="Layer_1" xmlns="http://www.w3.org/2000/svg" xmlns:xlink="http://www.w3.org/1999/xlink" x="0px" y="0px"
	viewBox="0 0 512 512" style="enable-background:new 0 0 512 512;" xml:space="preserve" width="16" height="16">
	<style type="text/css">
		.st0{fill-rule:evenodd;clip-rule:evenodd;fill:#838383;}
	</style>
	<path id="Forma_1" class="st0" d="M256,0C156.7,0,76,80.7,76,180c0,33.4,9.3,66.2,26.9,94.7l142.9,230.3c2.7,4.4,7.6,7.1,12.7,7.1
		h0.1c5.2,0,10.1-2.8,12.8-7.3l139.2-232.5c16.6-27.9,25.4-59.8,25.4-92.2C436,80.7,355.3,0,256,0z M384.9,256.8L258.3,468.2
		L128.4,258.8c-14.7-23.7-22.5-51-22.6-78.8c0-82.7,67.5-150.2,150.2-150.2S406.1,97.3,406.1,180
		C406.1,207.1,398.7,233.6,384.9,256.8z M256,90c-49.7,0-90,40.3-90,90s40.3,90,90,90s90-40.3,90-90C345.9,130.3,305.7,90.1,256,90z
		M256,240.2c-33.2,0.1-60.2-26.9-60.3-60.1s26.9-60.2,60.1-60.3c33.2-0.1,60.2,26.9,60.3,60.1c0,0,0,0.1,0,0.1
		C316.1,213.2,289.2,240.1,256,240.2z"/>
	</svg>
