<!-- Generator: Adobe Illustrator 24.0.2, SVG Export Plug-In . SVG Version: 6.00 Build 0)  -->
<svg version="1.1"
	id="Layer_1" xmlns:cc="http://creativecommons.org/ns#" xmlns:dc="http://purl.org/dc/elements/1.1/" xmlns:rdf="http://www.w3.org/1999/02/22-rdf-syntax-ns#"
	xmlns="http://www.w3.org/2000/svg" xmlns:xlink="http://www.w3.org/1999/xlink" x="0px" y="0px" viewBox="0 0 50.6 87"
	style="enable-background:new 0 0 50.6 87;" xml:space="preserve" width="18" height="30">
	<style type="text/css">
		.st0{stroke:#000000;stroke-miterlimit:10;}
		.st1{fill:#FFFFFF;}
	</style>
	<g transform="translate(0,-952.36218)">
		<path class="st0" d="M10.2,952.9c-5.4,0-9.7,4.3-9.7,9.7v66.6c0,5.4,4.3,9.7,9.7,9.7h30.2c5.4,0,9.7-4.4,9.7-9.7v-66.6
			c0-5.4-4.4-9.7-9.7-9.7C40.4,952.9,10.2,952.9,10.2,952.9z M10.2,954.6h30.2c4.4,0,7.9,3.5,7.9,7.9v0.8h-46v-0.8
			C2.3,958.2,5.8,954.6,10.2,954.6L10.2,954.6z M2.3,965.1h46v61.4h-46L2.3,965.1L2.3,965.1z M2.3,1028.4h46v0.8
			c0,4.4-3.5,7.9-7.9,7.9H10.2c-4.4,0-7.9-3.5-7.9-7.9L2.3,1028.4L2.3,1028.4z"/>
			<g>
				<path d="M10.1,991.9h0.8c0,0,0,0.1,0,0.1v15.9h-0.6c-0.6,0-1,0.5-1,1c0,0.6,0.5,1,1,1h1.6h3.8h3.8h3.8h3.8h3.8h3.8h3.8h1.6
					c0.6,0,1-0.5,1-1c0-0.6-0.5-1-1-1h-0.6v-15.9c0,0,0-0.1,0-0.1h0.8c0.8,0,1.4-0.5,1.7-1.2c0.2-0.7,0-1.5-0.6-2L26,977.2
					c-0.4-0.3-0.8-0.3-1.2,0L9.1,988.8c-0.6,0.5-0.9,1.2-0.6,2C8.7,991.5,9.3,991.9,10.1,991.9z M25.3,979.6l13.4,9.9H11.9
					C11.9,989.6,25.3,979.6,25.3,979.6z"/>
					<rect x="34.7" y="992" class="st1" width="2.7" height="16"/>
					<rect x="24.1" y="992" class="st1" width="2.7" height="16"/>
					<rect x="29.4" y="992" class="st1" width="2.7" height="16"/>
					<rect x="18.8" y="992" class="st1" width="2.7" height="16"/>
					<rect x="13.5" y="992" class="st1" width="2.7" height="16"/>
					<path d="M40.3,1014.8h-30c-0.6,0-1.1-0.5-1.1-1.1v-0.7c0-0.6,0.5-1.1,1.1-1.1h30c0.6,0,1.1,0.5,1.1,1.1v0.7
						C41.4,1014.3,40.9,1014.8,40.3,1014.8z"/>
					</g>
				</g>
			</svg>
