<svg xmlns="http://www.w3.org/2000/svg"  viewBox="0 0 444 612" fill="#838383" width="18" height="20">
	<defs>
		<style>
			.cls-1 {
			fill-rule: evenodd;
			}
		</style>
	</defs>
	<path id="Forma_1" data-name="Forma 1" class="cls-1" d="M294.043,464.845A14.962,14.962,0,0,1,279.074,479.8H164.927a14.956,14.956,0,1,1,0-29.911H279.074A14.963,14.963,0,0,1,294.043,464.845ZM152.409,224.193c0-28.786,30.568-51.335,69.592-51.335s69.59,22.549,69.59,51.335S261.024,275.529,222,275.529,152.409,252.979,152.409,224.193Zm29.938,0c0,10.113,16.959,21.425,39.654,21.425s39.652-11.311,39.652-21.425S244.7,202.768,222,202.768,182.347,214.08,182.347,224.193ZM444,76.38V597.045A14.962,14.962,0,0,1,429.03,612H14.97A14.962,14.962,0,0,1,0,597.045V76.38A14.962,14.962,0,0,1,14.97,61.424H134.2V51.334a14.962,14.962,0,0,1,14.97-14.955h23.668a51.4,51.4,0,0,1,98.319,0h23.671A14.962,14.962,0,0,1,309.8,51.336v10.09h119.23A14.96,14.96,0,0,1,444,76.38ZM164.14,109.142H279.86V66.291H258.413a14.962,14.962,0,0,1-14.969-14.955A21.459,21.459,0,0,0,222,29.911h0a21.458,21.458,0,0,0-21.444,21.425,14.962,14.962,0,0,1-14.97,14.955H164.138v42.851h0ZM104.616,509.329H339.382V91.335H309.8V124.1a14.963,14.963,0,0,1-14.969,14.956H149.171A14.963,14.963,0,0,1,134.2,124.1V91.335H104.616V509.329h0ZM414.06,91.335H369.32V524.284a14.962,14.962,0,0,1-14.969,14.956H89.647a14.963,14.963,0,0,1-14.969-14.956V91.335H29.939V582.089h384.12V91.335h0Zm-163.524,315.7a14.956,14.956,0,1,0,0-29.911H193.463a14.956,14.956,0,1,0,0,29.911h57.073Zm28.538-77.43H164.927a14.956,14.956,0,1,0,0,29.911H279.074A14.956,14.956,0,1,0,279.074,329.608Z"/>
</svg>
