<svg xmlns="http://www.w3.org/2000/svg" width="16" height="16" viewBox="0 0 512 512">
	<defs>
		<style>
			.cls-1 {
			fill: #838383;
			fill-rule: evenodd;
			}
		</style>
	</defs>
	<path id="Forma_1" data-name="Forma 1" class="cls-1" d="M498.423,161.127a45,45,0,0,0-63.6,0l-45.1,45.166V87.426a44.717,44.717,0,0,0-13.172-31.819L334.159,13.18A44.655,44.655,0,0,0,302.361,0H44.968A45.035,45.035,0,0,0,0,45V467a45.035,45.035,0,0,0,44.968,45h299.79a45.035,45.035,0,0,0,44.968-45V333.631l108.7-108.864A45,45,0,0,0,498.423,161.127ZM299.79,30c2.832,0,8.289-.491,13.171,4.393l42.4,42.427c4.757,4.761,4.391,9.978,4.391,13.18H299.79V30Zm59.957,437a15.011,15.011,0,0,1-14.989,15H44.968a15.012,15.012,0,0,1-14.989-15V45A15.012,15.012,0,0,1,44.968,30H269.81v75a15,15,0,0,0,14.99,15h74.947V236.323s-44.223,44.292-44.225,44.293l-21.188,21.2a14.993,14.993,0,0,0-3.621,5.863l-21.2,63.64A15,15,0,0,0,288.474,390.3l63.6-21.213a14.97,14.97,0,0,0,5.858-3.624l1.819-1.82V467h0ZM326.131,312.427l21.2,21.213-8.1,8.1-31.8,10.606,10.6-31.82Zm42.392,0-21.2-21.213,72.054-72.166,21.2,21.213Zm108.7-108.864-15.452,15.476-21.2-21.213,15.457-15.481A14.995,14.995,0,1,1,477.22,203.558ZM284.8,150H74.947a15,15,0,0,0,0,30H284.8A15,15,0,0,0,284.8,150Zm-59.958,60H74.947a15,15,0,0,0,0,30h149.9A15,15,0,0,0,224.842,210Zm0,60H74.947a15,15,0,0,0,0,30h149.9A15,15,0,0,0,224.842,270Zm0,60H74.947a15,15,0,0,0,0,30h149.9A15,15,0,0,0,224.842,330ZM284.8,422H194.863a15,15,0,0,0,0,30H284.8A15,15,0,0,0,284.8,422Z"/>
</svg>
