<svg xmlns="http://www.w3.org/2000/svg" width="16" height="16" viewBox="0 0 512 512">
	<defs>
		<style>
			.cls-1 {
			fill: #838383;
			fill-rule: evenodd;
			}
		</style>
	</defs>
	<path id="Forma_1" data-name="Forma 1" class="cls-1" d="M498.458,377.841l-63.627-63.62a45.048,45.048,0,0,0-63.627,0l-28.921,28.918a34.128,34.128,0,0,1-48.2,0L168.728,217.693a34.059,34.059,0,0,1,0-48.2l28.921-28.918a44.956,44.956,0,0,0-.017-63.636l-63.61-63.4a45.032,45.032,0,0,0-63.58-.046L47.258,36.473C-16,99.724-16,202.64,47.255,265.889L245.878,464.6a162.161,162.161,0,0,0,229.442,0l23.138-23.135A45.032,45.032,0,0,0,498.458,377.841ZM91.6,34.745a15.02,15.02,0,0,1,21.225.016l63.61,63.4a14.987,14.987,0,0,1,0,21.207l-10.6,10.6L81.054,45.2ZM267.091,443.391L68.467,244.683A131.829,131.829,0,0,1,60.194,66.757l84.535,84.526a64.005,64.005,0,0,0,2.786,87.614L272.867,364.341l0,0a64.018,64.018,0,0,0,87.626,2.791l84.537,84.528A131.609,131.609,0,0,1,267.091,443.391Zm210.16-23.137-10.606,10.6L381.81,346.03l10.6-10.6a15.017,15.017,0,0,1,21.21,0l63.627,63.62A15.011,15.011,0,0,1,477.251,420.254Z"/>
</svg>
