<svg xmlns="http://www.w3.org/2000/svg" width="48" height="48" viewBox="0 0 48 48">
  <defs>
    <style>
      .cls-1 {
        fill: #c22812;
        fill-rule: evenodd;
      }
    </style>
  </defs>
  <path id="Forma_1" data-name="Forma 1" class="cls-1" d="M45.722,7.259a1.737,1.737,0,0,0-2.456,0L22.432,28.036l-7.517-8.164a1.737,1.737,0,1,0-2.555,2.353L21.1,31.718a1.735,1.735,0,0,0,1.241.56h0.037a1.738,1.738,0,0,0,1.226-.507L45.719,9.715A1.737,1.737,0,0,0,45.722,7.259Zm-0.419,15A1.737,1.737,0,0,0,43.566,24,19.567,19.567,0,1,1,24,4.433,1.737,1.737,0,1,0,24,.96,23.04,23.04,0,1,0,47.04,24,1.737,1.737,0,0,0,45.3,22.263Z"/>
</svg>
