<svg xmlns="http://www.w3.org/2000/svg" width="27" height="27" viewBox="0 0 80 80"><g><g><path fill="#7fbb27" d="M59.86 31.432L36.827 53.277a3.242 3.242 0 0 1-4.557-.091L20.157 40.75a3.244 3.244 0 1 1 4.648-4.527l9.879 10.143 20.711-19.642a3.244 3.244 0 1 1 4.465 4.708zM80.014 40c0 22.063-17.95 40.013-40.013 40.013S-.013 62.063-.013 40C-.013 17.936 17.937-.013 40-.013S80.013 17.937 80.013 40zm-6.489 0C73.524 21.515 58.486 6.476 40 6.476 21.515 6.476 6.476 21.515 6.476 40c0 18.486 15.04 33.524 33.524 33.524 18.486 0 33.524-15.038 33.524-33.524z"/></g></g></svg>