<!-- Generator: Adobe Illustrator 24.0.2, SVG Export Plug-In . SVG Version: 6.00 Build 0)  -->
<svg version="1.1" id="Layer_1" xmlns="http://www.w3.org/2000/svg" xmlns:xlink="http://www.w3.org/1999/xlink" x="0px" y="0px"
	viewBox="0 0 512 512" style="enable-background:new 0 0 512 512;" xml:space="preserve" width="16" height="16">
	<style type="text/css">
		.st0{fill-rule:evenodd;clip-rule:evenodd;fill:#838383;}
	</style>
	<path id="Forma_1" class="st0" d="M426.2,305.6c-0.2-0.1-0.4-0.1-0.6-0.2l-56.1-16l-39.8-38v-10.2c19.8-19.6,31-46.4,31-74.3v-62
		c0-57.7-46.8-105-104.8-105c-58,0.1-105,47-105,105v62c0.1,27.9,11.2,54.6,31,74.3v10.2l-39.5,37.9l-55,16.1
		c-0.2,0.1-0.4,0.1-0.5,0.2c-24.2,8.2-38.2,33.4-32.3,58.3l26.5,136c1.4,7,7.5,12.1,14.7,12.1c0.4,0,0.8,0,1.3-0.1
		c0.4,0,0.8,0.1,1.1,0.1h317.7c7.1,0,13.3-5,14.7-12l28-136.1C464.4,339.1,450.4,313.8,426.2,305.6z M341.5,304.1l-42.9,64.4
		l-23.4-23.4l42.4-63.9L341.5,304.1z M255.9,30c23.6,0,45.8,11.1,60,30c-14.2,18.8-36.4,29.9-60,30h-73.5
		C189.5,55.1,220.3,30,255.9,30z M180.7,167v-47h75.2c27.5-0.1,53.9-10.8,73.5-30c1,5,1.5,10,1.5,15v62c-0.1,41.4-33.6,75-75,75
		C214.5,242,180.7,208.4,180.7,167z M194.1,281.1l42.5,63.9l-23.4,23.4l-42.9-64.4L194.1,281.1z M240.9,482H108.1
		c-0.1-0.6-24.3-124.4-24.4-125c-2.4-9.7,3-19.6,12.4-22.9l48.7-14.2l53.6,80.4c4.6,6.9,13.9,8.8,20.8,4.2c0.8-0.5,1.6-1.2,2.3-1.9
		l19.4-19.4L240.9,482L240.9,482L240.9,482z M219.9,265.6c23.2,8.5,48.7,8.5,72,0l-36,54.2L219.9,265.6z M429.2,357.6L403.6,482
		H270.7v-98.8l19.6,19.4c5.9,5.9,15.4,5.9,21.2,0c0.7-0.7,1.3-1.5,1.9-2.3l53.6-80.4l49.9,14.2C425.2,337,431.7,345.4,429.2,357.6
		L429.2,357.6z"/>
	</svg>
