<?xml version="1.0" standalone="no"?>
<!DOCTYPE svg PUBLIC "-//W3C//DTD SVG 20010904//EN"
 "http://www.w3.org/TR/2001/REC-SVG-20010904/DTD/svg10.dtd">
<svg version="1.0" xmlns="http://www.w3.org/2000/svg"
 width="500.000000pt" height="500.000000pt" viewBox="0 0 500.000000 500.000000"
 preserveAspectRatio="xMidYMid meet">
<metadata>
Created by potrace 1.11, written by Peter Selinger 2001-2013
</metadata>
<g transform="translate(0.000000,500.000000) scale(0.100000,-0.100000)"
fill="#c22812" stroke="none">
<path d="M1738 4321 c-48 -11 -111 -27 -140 -36 -63 -21 -220 -95 -263 -124
l-31 -20 -44 30 c-123 83 -220 111 -380 112 -160 0 -278 -38 -398 -128 -121
-91 -225 -248 -269 -405 -17 -61 -18 -137 -18 -1285 0 -1374 -6 -1270 78
-1445 33 -70 55 -100 131 -175 140 -139 262 -188 471 -189 213 0 385 80 511
238 68 85 109 164 137 265 21 74 21 98 27 906 6 916 3 880 70 953 23 26 37 32
69 32 34 0 44 -5 65 -33 14 -18 36 -55 48 -83 l23 -49 6 -835 c6 -896 3 -848
57 -988 32 -82 76 -143 166 -229 92 -89 169 -132 281 -160 94 -22 260 -22 345
0 233 63 404 233 477 475 15 51 17 143 23 892 l5 835 24 60 c33 81 68 115 120
115 36 0 43 -4 69 -42 16 -24 35 -54 43 -68 12 -21 15 -170 20 -855 5 -814 6
-832 27 -910 38 -139 94 -239 186 -330 135 -134 268 -187 471 -188 127 -1 201
15 313 69 125 60 260 212 313 353 50 134 50 136 46 1203 -3 973 -4 995 -25
1092 -58 269 -155 452 -326 614 -195 185 -425 296 -701 338 -139 22 -400 14
-507 -14 -127 -34 -257 -94 -370 -170 -59 -40 -110 -72 -114 -72 -3 0 -27 15
-53 34 -125 90 -254 149 -446 203 -77 22 -115 26 -270 29 -150 3 -195 1 -267
-15z m472 -106 c208 -49 398 -141 519 -250 l41 -37 67 49 c192 141 312 201
469 237 220 49 523 19 745 -73 162 -67 367 -229 464 -366 88 -124 150 -282
182 -465 17 -97 18 -181 18 -1080 l0 -975 -23 -80 c-32 -109 -73 -177 -156
-260 -108 -107 -228 -155 -387 -155 -261 1 -463 146 -547 394 l-27 81 -5 835
c-4 557 -9 845 -17 865 -38 108 -112 199 -176 216 -115 31 -213 -37 -270 -189
-21 -56 -22 -66 -27 -892 -6 -759 -8 -840 -24 -894 -29 -98 -73 -172 -146
-250 -109 -114 -234 -166 -400 -166 -172 0 -286 46 -396 158 -78 80 -119 147
-155 257 l-23 70 -6 835 c-4 621 -9 844 -18 872 -17 50 -87 153 -120 177 -36
25 -84 34 -137 27 -54 -9 -120 -64 -157 -132 -56 -104 -58 -132 -58 -973 0
-845 -1 -856 -60 -976 -93 -190 -262 -302 -471 -313 -178 -9 -307 35 -420 145
-83 80 -120 135 -157 234 l-27 74 0 1240 0 1240 28 80 c33 97 80 170 161 250
105 103 232 155 382 155 149 0 245 -33 361 -124 l67 -53 51 40 c100 80 313
165 468 187 86 12 308 3 387 -15z"/>
<path d="M1773 4055 c-84 -19 -209 -69 -268 -106 -69 -43 -154 -119 -190 -168
-16 -22 -32 -40 -35 -40 -3 0 -16 22 -29 49 -28 57 -114 143 -181 183 -95 55
-255 58 -365 6 -59 -28 -152 -120 -188 -187 -58 -107 -57 -73 -57 -1332 0
-1260 -1 -1225 57 -1332 40 -74 141 -164 205 -183 164 -49 328 -16 428 88 49
50 86 109 108 175 14 41 17 148 22 882 l5 835 24 70 c30 93 63 148 128 217 77
80 132 103 253 103 84 0 102 -3 152 -28 69 -34 133 -104 183 -198 70 -134 68
-103 74 -1019 6 -770 7 -828 25 -875 27 -73 48 -104 118 -171 82 -79 137 -99
268 -98 75 0 107 5 154 24 105 41 198 147 233 265 15 54 18 138 23 890 5 822
5 831 27 895 46 135 124 234 228 288 44 23 62 26 150 27 82 0 109 -4 146 -21
89 -41 189 -169 231 -293 23 -66 23 -72 28 -896 5 -768 7 -834 24 -885 27 -81
52 -126 99 -177 54 -59 107 -89 192 -109 233 -54 447 80 495 312 7 34 10 369
7 1035 -3 966 -3 986 -24 1071 -48 192 -122 327 -242 441 -207 195 -427 277
-741 277 -257 0 -361 -43 -678 -277 -61 -45 -115 -83 -120 -83 -4 0 -18 16
-31 36 -81 119 -282 240 -496 300 -82 23 -356 28 -442 9z"/>
</g>
</svg>
